# xmcd
#
# Track frame offsets:
# 183
# 14083
# 29385
# 43898
# 57305
# 73058
# 84775
# 98530
# 113235
# 125680
# 139273
# 153593
# 165670
# 178960
# 191695
#
# Disc length: 2725 seconds
#
# Revision: 0
# Processed by: cddbd v1.5.1PL0 Copyright (c) Steve Scherf et al.
# Submitted via: Audion 3.0.2 (http://www.panic.com/audion/)
#
DISCID=d60aa30f
DTITLE=canzoni italiane - carosone
DYEAR=1900
DGENRE=
TTITLE0=torero
TTITLE1=caravan petrol
TTITLE2=o' sarracino
TTITLE3=la donna riccia
TTITLE4=la pansé
TTITLE5=a casciforte
TTITLE6=pigliate na pastiglia
TTITLE7=o russo e rossa
TTITLE8=a sonnambula
TTITLE9=i tre compari
TTITLE10=giuvanne cu a chitarra
TTITLE11=o suspiro
TTITLE12=stu fungo cinese
TTITLE13=t'è piaciuta
TTITLE14=caino e abele
EXTD=
EXTT0=
EXTT1=
EXTT2=
EXTT3=
EXTT4=
EXTT5=
EXTT6=
EXTT7=
EXTT8=
EXTT9=
EXTT10=
EXTT11=
EXTT12=
EXTT13=
EXTT14=
PLAYORDER=
